<svg xmlns="http://www.w3.org/2000/svg" class="icon icon-tabler icon-tabler-lego" width="250px" height="250px" viewBox="0 0 24 24" stroke-width="1.52" stroke="rgba(1, 1, 1, 1)" fill="none" stroke-linecap="round" stroke-linejoin="round"><circle cx="50%" cy="50%" r="50%" stroke="none" stroke-width="0" fill="rgba(255, 255, 255, 1)"/><g transform="translate(4.80, 4.80) scale(0.6)"><path stroke="none" d="M0 0h24v24H0z" fill="none"/><line x1="9.5" y1="11" x2="9.51" y2="11"/><line x1="14.5" y1="11" x2="14.51" y2="11"/><path d="M9.5 15a3.5 3.5 0 0 0 5 0"/><path d="M7 5h1v-2h8v2h1a3 3 0 0 1 3 3v9a3 3 0 0 1 -3 3v1h-10v-1a3 3 0 0 1 -3 -3v-9a3 3 0 0 1 3 -3"/></g>
  
  
  
  
  
</svg>